<svg width="65" height="65" viewBox="0 0 65 65" fill="none" xmlns="http://www.w3.org/2000/svg">
<path d="M0 0H65V65H0V0Z" fill="#F7DF1E"/>
<path d="M17.0909 54.3188L22.0651 51.3085C23.0248 53.0099 23.8977 54.4495 25.9917 54.4495C27.9988 54.4495 29.2642 53.6643 29.2642 50.6104V29.8413H35.3726V50.6967C35.3726 57.0234 31.6641 59.9031 26.2535 59.9031C21.3671 59.9031 18.5306 57.3723 17.0908 54.3183" fill="black"/>
<path d="M38.6905 53.6642L43.6641 50.7845C44.9734 52.9226 46.675 54.4933 49.6855 54.4933C52.2164 54.4933 53.8304 53.2278 53.8304 51.4825C53.8304 49.3882 52.1725 48.6464 49.38 47.4251L47.8533 46.7701C43.4462 44.8943 40.5227 42.5382 40.5227 37.5641C40.5227 32.9827 44.0132 29.492 49.4675 29.492C53.3507 29.492 56.1432 30.8447 58.15 34.379L53.3941 37.433C52.3469 35.557 51.2128 34.8154 49.4676 34.8154C47.6786 34.8154 46.5441 35.9498 46.5441 37.433C46.5441 39.2656 47.6786 40.0076 50.2963 41.1421L51.8233 41.7965C57.0155 44.0219 59.939 46.2905 59.939 51.3952C59.939 56.8932 55.6195 59.9035 49.8165 59.9035C44.1444 59.9035 40.4792 57.1985 38.6906 53.6642" fill="black"/>
</svg>
